<svg xmlns="http://www.w3.org/2000/svg" xmlns:xlink="http://www.w3.org/1999/xlink" width="100" height="100" viewBox="0 0 100 100"><rect width="100%" height="100%" fill="none"></rect><g transform="translate(50 50) scale(0.69 0.69) rotate(0) translate(-50 -50)" style="fill:#494949"><svg fill="#494949" xmlns="http://www.w3.org/2000/svg" xmlns:xlink="http://www.w3.org/1999/xlink" viewBox="0 0 46 41" version="1.1" x="0px" y="0px"><title>arrow-icon@1x</title><desc>Created with Sketch.</desc><g stroke="none" stroke-width="1" fill="none" fill-rule="evenodd"><g transform="translate(-1282.000000, -2923.000000)" fill="#494949"><g transform="translate(275.000000, 1935.000000)"><g transform="translate(75.000000, 512.000000)"><g transform="translate(932.000000, 476.000000)"><path d="M42.2064,17.6413714 L9.86125714,17.6413714 L22.5332571,4.9728 C23.6646857,3.83794286 23.6646857,1.98651429 22.5332571,0.851657143 C21.3984,-0.2832 19.5435429,-0.2832 18.4121143,0.851657143 L0.847542857,18.4128 C0.274971429,18.9888 -0.00274285714,19.7499429 0.00754285714,20.5110857 C0.00754285714,20.5282286 0.000685714286,20.5419429 0.000685714286,20.5556571 L0.000685714286,20.5590857 C0.000685714286,20.5796571 0.0144,20.6036571 0.0144,20.6276571 C0.0246857143,20.9842286 0.0898285714,21.3373714 0.226971429,21.6733714 C0.312685714,21.8756571 0.460114286,22.0402286 0.5904,22.2219429 C0.682971429,22.3488 0.7344,22.4996571 0.847542857,22.6128 L18.4121143,40.1739429 C19.5435429,41.3053714 21.3984,41.3053714 22.5332571,40.1739429 C23.6646857,39.0390857 23.6646857,37.1842286 22.5332571,36.0528 L9.9504,23.4699429 L42.2064,23.4699429 C43.8109714,23.4699429 45.1206857,22.1568 45.1206857,20.5590857 C45.1206857,18.9545143 43.8109714,17.6413714 42.2064,17.6413714"></path></g></g></g></g></g></svg></g></svg>