<svg xmlns="http://www.w3.org/2000/svg" xmlns:xlink="http://www.w3.org/1999/xlink" width="100" height="100" viewBox="0 0 100 100"><rect width="100%" height="100%" fill="#efe9e0"></rect><g transform="translate(50 50) scale(0.69 0.69) rotate(0) translate(-50 -50)" style="fill:#494949"><svg fill="#494949" xmlns="http://www.w3.org/2000/svg" viewBox="0 0 32 32" x="0px" y="0px"><title>List</title><g data-name="15-List"><path d="M29,17H9a1,1,0,0,1,0-2H29a1,1,0,0,1,0,2ZM4,14a2,2,0,1,0,2,2A2,2,0,0,0,4,14ZM30,7a1,1,0,0,0-1-1H9A1,1,0,0,0,9,8H29A1,1,0,0,0,30,7ZM6,7A2,2,0,1,0,4,9,2,2,0,0,0,6,7ZM4,7ZM30,25a1,1,0,0,0-1-1H9a1,1,0,0,0,0,2H29A1,1,0,0,0,30,25ZM6,25a2,2,0,1,0-2,2A2,2,0,0,0,6,25ZM4,25Z"></path></g></svg></g></svg>