<svg xmlns="http://www.w3.org/2000/svg" xmlns:xlink="http://www.w3.org/1999/xlink" width="100" height="100" viewBox="0 0 100 100"><rect width="100%" height="100%" fill="none"></rect><g transform="translate(50 50) scale(0.69 0.69) rotate(0) translate(-50 -50)" style="fill:#494949"><svg fill="#494949" xmlns="http://www.w3.org/2000/svg" viewBox="0 0 32 32" x="0px" y="0px"><title>Maps</title><g><path d="M16,2A10,10,0,0,0,6,12c0,7.3,8.88,17.25,9.26,17.67a1,1,0,0,0,1.49,0C17.12,29.25,26,19.3,26,12A10,10,0,0,0,16,2Zm0,25.46C13.89,24.93,8,17.39,8,12a8,8,0,0,1,16,0C24,17.39,18.11,24.93,16,27.46Z"></path><path d="M16,7a4,4,0,1,0,4,4A4,4,0,0,0,16,7Zm0,6a2,2,0,1,1,2-2A2,2,0,0,1,16,13Z"></path></g></svg></g></svg>