<svg xmlns="http://www.w3.org/2000/svg" xmlns:xlink="http://www.w3.org/1999/xlink" width="100" height="100" viewBox="0 0 100 100"><rect width="100%" height="100%" fill="#efe9e0"></rect><g transform="translate(50 50) scale(0.69 0.69) rotate(0) translate(-50 -50)" style="fill:#494949"><svg fill="#494949" xmlns:dc="http://purl.org/dc/elements/1.1/" xmlns:cc="http://creativecommons.org/ns#" xmlns:rdf="http://www.w3.org/1999/02/22-rdf-syntax-ns#" xmlns:svg="http://www.w3.org/2000/svg" xmlns="http://www.w3.org/2000/svg" xmlns:sodipodi="http://sodipodi.sourceforge.net/DTD/sodipodi-0.dtd" xmlns:inkscape="http://www.inkscape.org/namespaces/inkscape" version="1.1" x="0px" y="0px" viewBox="0 0 100 100"><g transform="translate(0,-952.36218)"><path style="text-indent:0;text-transform:none;direction:ltr;block-progression:tb;baseline-shift:baseline;color:#000000;enable-background:accumulate;" d="m 34.250004,962.50111 -29.9999995,12 c -0.7397,0.2992 -1.2583,1.0771 -1.25,1.875 l 0,64.00009 c 0.01,1.3 1.5448,2.3311 2.75,1.8438 l 29.2499995,-11.6876 29.25,11.6876 c 0.4751,0.1922 1.0249,0.1922 1.5,0 l 29.999996,-12 c 0.73,-0.2954 1.2459,-1.0563 1.25,-1.8438 l 0,-64.00009 c 0.014,-1.3104 -1.5352,-2.3663 -2.75,-1.875 l -16.749996,6.6875 c -2.8276,-4.3235 -7.671,-6.8417 -12.5312,-6.8125 -5.1931,0 -9.7237,2.7309 -12.4063,6.8438 l -16.8125,-6.7188 c -0.5981,-0.2409 -1.1696,-0.1262 -1.5,0 z m 30.7188,3.875 c 6.0668,0 11.0312,5.0365 11.0312,11.4062 0,1.3217 -0.4391,3.3663 -0.9062,4.625 -3.3416,7.0971 -6.7258,14.1908 -10.0938,21.28129 -3.3532,-7.09759 -6.7665,-14.17739 -10.0938,-21.28129 -0.4664,-1.2624 -0.9062,-3.3067 -0.9062,-4.625 0.2495,-7.265 5.7122,-11.3544 10.9688,-11.4062 z M 93,967.31361 l 0,59.68759 -25.999996,10.375 0,-28.5626 c 3.8999,-8.3412 7.9897,-16.62089 11.8438,-24.96869 0.6522,-1.7413 1.1562,-3.9838 1.1562,-6.0626 -1e-4,-1.7747 -0.2655,-3.4204 -0.75,-4.9374 z m -59.999996,0.031 0,59.65629 -25.9999995,10.4062 0,-59.68749 z m 4,0 13.7812,5.5 c -0.5122,1.5533 -0.7812,3.2119 -0.7812,4.9374 0,2.0807 0.5091,4.3261 1.1562,6.0626 3.9234,8.3172 7.895,16.64919 11.8438,24.96869 l 0,28.5626 -26,-10.375 z m 28,4.0312 c -3.29,0 -6,2.71 -6,6 0,3.29 2.71,6 6,6 3.2899,0 6,-2.7099 6,-6 0,-3.2901 -2.7101,-6 -6,-6 z m 0,4 c 1.1281,0 2,0.8718 2,2 0,1.1282 -0.8719,2 -2,2 -1.1284,0 -2,-0.8717 -2,-2 0,-1.1283 0.8716,-2 2,-2 z" fill="#494949" fill-opacity="1" stroke="none" marker="none" visibility="visible" display="inline" overflow="visible"></path></g></svg></g></svg>