<svg xmlns="http://www.w3.org/2000/svg" xmlns:xlink="http://www.w3.org/1999/xlink" width="100" height="100" viewBox="0 0 100 100"><rect width="100%" height="100%" fill="none"></rect><g transform="translate(50 50) scale(0.69 0.69) rotate(0) translate(-50 -50)" style="fill:#e85e56"><svg fill="#e85e56" xmlns="http://www.w3.org/2000/svg" xmlns:xlink="http://www.w3.org/1999/xlink" version="1.1" x="0px" y="0px" viewBox="0 0 100 100" enable-background="new 0 0 100 100" xml:space="preserve"><g><path d="M80.5,47.9c3.9-11.3,1.4-24.4-7.7-33.4c-12.6-12.6-33.1-12.6-45.7,0c-9,9-11.6,22.1-7.7,33.4C27.8,72.1,50,95,50,95   s22-22.7,30.4-46.7L80.5,47.9z M56.9,46.3c-3.8,3.8-10,3.8-13.7,0c-3.8-3.8-3.8-10,0-13.7c3.8-3.8,10-3.8,13.7,0   C60.7,36.4,60.7,42.5,56.9,46.3z"></path></g></svg></g></svg>