<svg xmlns="http://www.w3.org/2000/svg" xmlns:xlink="http://www.w3.org/1999/xlink" width="100" height="100" viewBox="0 0 100 100"><rect width="100%" height="100%" fill="#efe9e0"></rect><g transform="translate(50 50) scale(0.69 0.69) rotate(0) translate(-50 -50)" style="fill:#494949"><svg fill="#494949" xmlns="http://www.w3.org/2000/svg" xmlns:xlink="http://www.w3.org/1999/xlink" version="1.1" x="0px" y="0px" viewBox="0 0 54.691 54.691" enable-background="new 0 0 54.691 54.691" xml:space="preserve"><g><path d="M-4318.56-68.404c-43.25,0-78.438,35.186-78.438,78.435c0,43.252,35.188,78.439,78.438,78.439s78.436-35.188,78.436-78.439   C-4240.124-33.218-4275.31-68.404-4318.56-68.404z M-4318.867-35.187c13.682,0,24.771,11.092,24.771,24.771   c0,13.681-11.092,24.771-24.771,24.771c-13.683,0-24.771-11.092-24.771-24.771C-4343.639-24.095-4332.55-35.187-4318.867-35.187z    M-4274.686,65.074c-12.042,9.627-27.292,15.396-43.874,15.396c-16.562,0-31.797-5.75-43.834-15.354   c1.116-19.851,14.187-39.903,30.178-39.903h27.332c16.024,0,29.128,19.324,30.197,39.206c0.001,0.002,0.001,0.004,0.001,0.006   C-4274.686,64.427-4274.686,64.786-4274.686,65.074z"></path></g><g><path fill="#494949" d="M27.345,28.609c5.077,0,9.208-4.13,9.208-9.207c0-5.078-4.131-9.208-9.208-9.208   c-5.078,0-9.208,4.13-9.208,9.208C18.138,24.479,22.268,28.609,27.345,28.609z M27.345,12.696c3.698,0,6.705,3.008,6.705,6.706   c0,3.697-3.007,6.705-6.705,6.705c-3.697,0-6.706-3.008-6.706-6.705C20.64,15.704,23.648,12.696,27.345,12.696z"></path><path fill="#494949" d="M27.346,2.186c-13.873,0-25.16,11.286-25.16,25.159c0,13.874,11.287,25.161,25.16,25.161   c13.873,0,25.159-11.287,25.159-25.161C52.505,13.472,41.219,2.186,27.346,2.186z M27.346,4.688   c12.493,0,22.657,10.165,22.657,22.657c0,5.135-1.72,9.874-4.608,13.678c-1.25-5.885-6.484-10.314-12.737-10.314H22.033   c-6.252,0-11.487,4.43-12.736,10.314c-2.89-3.805-4.609-8.543-4.609-13.678C4.688,14.852,14.853,4.688,27.346,4.688z    M11.521,43.539c0.101-5.713,4.776-10.328,10.513-10.328h10.624c5.737,0,10.412,4.615,10.514,10.328   c-4.086,3.994-9.672,6.465-15.825,6.465C21.193,50.004,15.607,47.533,11.521,43.539z"></path></g></svg></g></svg>