<svg xmlns="http://www.w3.org/2000/svg" xmlns:xlink="http://www.w3.org/1999/xlink" width="100" height="100" viewBox="0 0 100 100"><rect width="100%" height="100%" fill="none"></rect><g transform="translate(50 50) scale(0.69 0.69) rotate(0) translate(-50 -50)" style="fill:#494949"><svg fill="#494949" xmlns="http://www.w3.org/2000/svg" xmlns:xlink="http://www.w3.org/1999/xlink" version="1.1" x="0px" y="0px" viewBox="0 0 32 32" enable-background="new 0 0 32 32" xml:space="preserve"><g><path d="M20.121,14.671c1.942-1.345,3.147-3.581,3.147-5.975c0-4.007-3.26-7.268-7.268-7.268s-7.268,3.26-7.268,7.268   c0,2.394,1.205,4.63,3.147,5.975C6.091,16.693,2,22.847,2,29.779v1h28v-1C30,22.847,25.909,16.693,20.121,14.671z M4.031,28.779   C4.476,21.552,9.65,15.964,16,15.964s11.524,5.587,11.969,12.814H4.031z M16,3.429c2.905,0,5.268,2.363,5.268,5.268   S18.905,13.964,16,13.964s-5.268-2.363-5.268-5.268S13.095,3.429,16,3.429z"></path></g></svg></g></svg>