<svg xmlns="http://www.w3.org/2000/svg" xmlns:xlink="http://www.w3.org/1999/xlink" width="100" height="100" viewBox="0 0 100 100"><rect width="100%" height="100%" fill="none"></rect><g transform="translate(50 50) scale(0.69 0.69) rotate(0) translate(-50 -50)" style="fill:#f4e9dc"><svg fill="#494949" xmlns="http://www.w3.org/2000/svg" data-name="Layer 1" viewBox="0 0 100 100" x="0px" y="0px"><title>setng cog</title><path d="M34.85,100a11.72,11.72,0,0,1-4.36-.8c-4.55-1.8-8-6.85-7.79-11.52,0.1-3-1.25-6.19-2.27-7.17s-4.28-2.27-7.25-2.07C8.55,78.74,3.37,75.48,1.44,71S0.66,60.5,4.08,57.34c2.17-2,3.48-5.25,3.46-6.68s-1.43-4.61-3.67-6.58C0.35,41-1,35,.79,30.51s6.85-8,11.52-7.79c3,0.1,6.19-1.25,7.19-2.27s2.25-4.28,2.05-7.25C21.24,8.55,24.5,3.38,29,1.45s10.49-.78,13.67,2.64a11.37,11.37,0,0,0,6.64,3.46h0c1.43,0,4.61-1.43,6.56-3.67C59,0.35,65-1,69.48.8s8,6.85,7.79,11.52c-0.12,3,1.25,6.19,2.28,7.19s4.28,2.25,7.23,2.05c4.67-.31,9.82,2.95,11.76,7.42s0.78,10.49-2.62,13.67c-2.19,2-3.5,5.27-3.46,6.68s1.43,4.61,3.67,6.56c3.52,3.07,4.86,9,3.07,13.57A12.82,12.82,0,0,1,88,77.28H87.68c-3-.12-6.19,1.25-7.17,2.27s-2.25,4.28-2.05,7.25c0.31,4.65-3,9.8-7.44,11.76s-10.49.78-13.65-2.62c-2-2.17-5.21-3.48-6.66-3.48h0c-1.43,0-4.61,1.43-6.56,3.67A12.5,12.5,0,0,1,34.85,100ZM13.8,72.89c3.91,0,8.26,1.48,10.49,3.63,2.4,2.32,4.1,7.21,4,11.35A7.24,7.24,0,0,0,32.55,94a7.2,7.2,0,0,0,7.36-1.56c2.73-3.12,7.3-5.51,10.64-5.57s8,2.19,10.82,5.23c1.6,1.72,5.06,2.32,7.42,1.31s4.28-4,4.12-6.31c-0.27-4.12,1.27-9.06,3.59-11.46s7.21-4.1,11.37-4H88A6.82,6.82,0,0,0,92.49,60c-3.12-2.73-5.51-7.3-5.57-10.64s2.19-8,5.23-10.82a7.24,7.24,0,0,0,1.33-7.42A7.22,7.22,0,0,0,87.18,27c-4.12.27-9.06-1.27-11.46-3.61s-4.1-7.23-4-11.37A7.22,7.22,0,0,0,67.43,5.9a7.2,7.2,0,0,0-7.36,1.56C57.33,10.59,52.76,13,49.42,13H49.31C46,13,41.4,10.8,38.6,7.79a7.23,7.23,0,0,0-7.42-1.33c-2.34,1-4.28,4-4.12,6.31,0.27,4.14-1.27,9.06-3.59,11.46s-7.21,4.1-11.35,3.95H12A7.24,7.24,0,0,0,6,32.5a7.2,7.2,0,0,0,1.56,7.36c3.12,2.73,5.51,7.3,5.57,10.66s-2.19,8-5.21,10.82a7.2,7.2,0,0,0-1.33,7.4c1,2.34,4,4.28,6.31,4.12A7.66,7.66,0,0,0,13.8,72.89ZM50,71.19a21.19,21.19,0,1,1,8.44-1.76l-1.09-2.54,1.09,2.54A21.36,21.36,0,0,1,50,71.19Zm0-36.79a15.35,15.35,0,0,0-6.17,1.29A15.58,15.58,0,1,0,50,34.39Z"></path></svg></g></svg>