<svg xmlns="http://www.w3.org/2000/svg" xmlns:xlink="http://www.w3.org/1999/xlink" width="100" height="100" viewBox="0 0 100 100"><rect width="100%" height="100%" fill="none"></rect><g transform="translate(50 50) scale(0.69 0.69) rotate(0) translate(-50 -50)" style="fill:#f4e9dc"><svg fill="#f4e9dc" xmlns="http://www.w3.org/2000/svg" xmlns:xlink="http://www.w3.org/1999/xlink" version="1.1" x="0px" y="0px" viewBox="0 0 100 100" enable-background="new 0 0 100 100" xml:space="preserve"><g><path d="M7,29.208c0,2.761,2.238,5,5,5h77c2.762,0,5-2.239,5-5v-4.667c0-2.761-2.238-5-5-5H12c-2.762,0-5,2.239-5,5V29.208z"></path><path d="M37,54.958c0,2.762,2.238,5,5,5h47c2.762,0,5-2.238,5-5v-4.666c0-2.762-2.238-5-5-5H42c-2.762,0-5,2.238-5,5V54.958z"></path><path d="M67,81.125c0,2.761,2.238,5,5,5h17c2.762,0,5-2.239,5-5v-4.667c0-2.761-2.238-5-5-5H72c-2.762,0-5,2.239-5,5V81.125z"></path></g></svg></g></svg>